{"title":"Black.Sails.S01E01.WEBRip.AAC2.0.H.264-TJ.mp4","uid":9476407,"size":601305244,"categoryP":"video","categoryS":"tv_shows","magnet":"?xt=urn:btih:237009c75c70ea0e24d10e91f95f12160f484b7c&amp;dn=Black.Sails.S01E01.WEBRip.AAC2.0.H.264-TJ.mp4&amp;tr=udp%3A%2F%2Ftracker.openbittorrent.com%3A80&amp;tr=udp%3A%2F%2Fopen.demonii.com%3A1337&amp;tr=udp%3A%2F%2Ftracker.coppersurfer.tk%3A6969&amp;tr=udp%3A%2F%2Fexodus.desync.com%3A6969","seeders":4,"leechers":0,"uploader":"thatjulio","files":1,"time":1389709040,"description":"General\nFormat                                   : MPEG-4\nFormat profile                           : Base Media / Version 2\nCodec ID                                 : mp42\nFile size                                : 573 MiB\nDuration                                 : 1h 5mn\nOverall bit rate mode                    : Variable\nOverall bit rate                         : 1 231 Kbps\nMovie name                               : black.sails.s01e01.dvdscr.x264-hibbs\nAlbum                                    : BLACK_SAIL_DVD\nEncoded date                             : UTC 2014-01-14 12:28:19\nTagged date                              : UTC 2014-01-14 12:48:34\nWriting application                      : HandBrake 0.9.9 2013052900\ncovr                                     : Unknown kind of value!\n\nVideo\nID                                       : 1\nFormat                                   : AVC\nFormat/Info                              : Advanced Video Codec\nFormat profile                           : &lt;a class=&quot;__cf_email__&quot; href=&quot;/cdn-cgi/l/email-protection&quot; data-cfemail=&quot;d496b5a7b1b8bdbab19498e7fae4&quot;&gt;[email&amp;#160;protected]&lt;/a&gt;&lt;script cf-hash='f9e31' type=&quot;text/javascript&quot;&gt;\n/* &lt;![CDATA[ */!function(){try{var t=&quot;currentScript&quot;in document?document.currentScript:function(){for(var t=document.getElementsByTagName(&quot;script&quot;),e=t.length;e--;)if(t[e].getAttribute(&quot;cf-hash&quot;))return t[e]}();if(t&amp;&amp;t.previousSibling){var e,r,n,i,c=t.previousSibling,a=c.getAttribute(&quot;data-cfemail&quot;);if(a){for(e=&quot;&quot;,r=parseInt(a.substr(0,2),16),n=2;a.length-n;n+=2)i=parseInt(a.substr(n,2),16)^r,e+=String.fromCharCode(i);e=document.createTextNode(e),c.parentNode.replaceChild(e,c)}}}catch(u){}}();/* ]]&gt; */&lt;/script&gt;\nFormat settings, CABAC                   : No\nFormat settings, ReFrames                : 2 frames\nCodec ID                                 : avc1\nCodec ID/Info                            : Advanced Video Coding\nDuration                                 : 1h 5mn\nBit rate                                 : 1 065 Kbps\nWidth                                    : 640 pixels\nHeight                                   : 368 pixels\nDisplay aspect ratio                     : 1.739\nFrame rate mode                          : Variable\nFrame rate                               : 29.970 fps\nMinimum frame rate                       : 14.985 fps\nMaximum frame rate                       : 30.000 fps\nColor space                              : YUV\nChroma subsampling                       : 4:2:0\nBit depth                                : 8 bits\nScan type                                : Progressive\nBits/(Pixel*Frame)                       : 0.151\nStream size                              : 496 MiB (87%)\nWriting library                          : x264 core 130 r2273 b3065e6\nEncoding settings                        : cabac=0 / ref=2 / deblock=1:-1:-1 / analyse=0x1:0x111 / me=hex / subme=6 / psy=1 / psy_rd=1.00:0.15 / mixed_ref=1 / me_range=16 / chroma_me=1 / trellis=1 / 8x8dct=0 / cqm=0 / deadzone=21,11 / fast_pskip=1 / chroma_qp_offset=-3 / threads=6 / lookahead_threads=1 / sliced_threads=0 / nr=0 / decimate=1 / interlaced=0 / bluray_compat=0 / constrained_intra=0 / bframes=0 / weightp=0 / keyint=300 / keyint_min=30 / scenecut=40 / intra_refresh=0 / rc_lookahead=30 / rc=crf / mbtree=1 / crf=20.0 / qcomp=0.60 / qpmin=0 / qpmax=69 / qpstep=4 / vbv_maxrate=10000 / vbv_bufsize=10000 / crf_max=0.0 / nal_hrd=none / ip_ratio=1.40 / aq=1:1.00\nEncoded date                             : UTC 2014-01-14 12:28:19\nTagged date                              : UTC 2014-01-14 12:48:34\nColor primaries                          : BT.601 NTSC\nTransfer characteristics                 : BT.709\nMatrix coefficients                      : BT.601\n\nAudio\nID                                       : 2\nFormat                                   : AAC\nFormat/Info                              : Advanced Audio Codec\nFormat profile                           : LC\nCodec ID                                 : 40\nDuration                                 : 1h 5mn\nBit rate mode                            : Variable\nBit rate                                 : 160 Kbps\nMaximum bit rate                         : 307 Kbps\nChannel(s)                               : 2 channels\nChannel positions                        : Front: L R\nSampling rate                            : 48.0 KHz\nCompression mode                         : Lossy\nStream size                              : 74.5 MiB (13%)\nEncoded date                             : UTC 2014-01-14 12:28:19\nTagged date                              : UTC 2014-01-14 12:48:33\n\nMenu\nID                                       : 3\nCodec ID                                 : text\nDuration                                 : 1h 5mn\nEncoded date                             : UTC 2014-01-14 12:28:19\nTagged date                              : UTC 2014-01-14 12:48:34\nBit rate mode                            : VBR\n","torrent":{"xt":"urn:btih:237009c75c70ea0e24d10e91f95f12160f484b7c","amp;dn":"Black.Sails.S01E01.WEBRip.AAC2.0.H.264-TJ.mp4","amp;tr":["udp%3A%2F%2Ftracker.openbittorrent.com%3A80","udp%3A%2F%2Fopen.demonii.com%3A1337","udp%3A%2F%2Ftracker.coppersurfer.tk%3A6969","udp%3A%2F%2Fexodus.desync.com%3A6969"],"infoHash":"237009c75c70ea0e24d10e91f95f12160f484b7c","infoHashBuffer":{"type":"Buffer","data":[35,112,9,199,92,112,234,14,36,209,14,145,249,95,18,22,15,72,75,124]},"announce":[],"urlList":[]}}